{
    "asset" : {
        "generator" : "Khronos glTF Blender I/O v1.5.17",
        "version" : "2.0"
    },
    "scene" : 0,
    "scenes" : [
        {
            "name" : "Scene",
            "nodes" : [
                0,
                1,
                3
            ]
        }
    ],
    "nodes" : [
        {
            "name" : "Light",
            "rotation" : [
                0.16907575726509094,
                0.7558803558349609,
                -0.27217137813568115,
                0.570947527885437
            ],
            "translation" : [
                4.076245307922363,
                5.903861999511719,
                -1.0054539442062378
            ]
        },
        {
            "name" : "Camera",
            "rotation" : [
                0.483536034822464,
                0.33687159419059753,
                -0.20870360732078552,
                0.7804827094078064
            ],
            "translation" : [
                7.358891487121582,
                4.958309173583984,
                6.925790786743164
            ]
        },
        {
            "mesh" : 0,
            "name" : "Cylinder",
            "rotation" : [
                0,
                -0.3644283711910248,
                0,
                0.9312314391136169
            ],
            "scale" : [
                3.593435525894165,
                1.0449976921081543,
                3.4087836742401123
            ],
            "translation" : [
                -0.046875279396772385,
                0.21795961260795593,
                -0.014183388091623783
            ]
        },
        {
            "children" : [
                2
            ],
            "mesh" : 1,
            "name" : "Circle",
            "scale" : [
                0.6390313506126404,
                0.6390313506126404,
                0.6390313506126404
            ],
            "translation" : [
                0,
                0.053360845893621445,
                0
            ]
        }
    ],
    "meshes" : [
        {
            "name" : "Cylinder",
            "primitives" : [
                {
                    "attributes" : {
                        "POSITION" : 0,
                        "NORMAL" : 1,
                        "TEXCOORD_0" : 2
                    },
                    "indices" : 3
                }
            ]
        },
        {
            "name" : "Circle.001",
            "primitives" : [
                {
                    "attributes" : {
                        "POSITION" : 4,
                        "NORMAL" : 5,
                        "TEXCOORD_0" : 6
                    },
                    "indices" : 7
                }
            ]
        }
    ],
    "accessors" : [
        {
            "bufferView" : 0,
            "componentType" : 5126,
            "count" : 1714,
            "max" : [
                0.06514512002468109,
                0.24774381518363953,
                0.06791295111179352
            ],
            "min" : [
                -0.0631750226020813,
                -0.24743685126304626,
                -0.05840958654880524
            ],
            "type" : "VEC3"
        },
        {
            "bufferView" : 1,
            "componentType" : 5126,
            "count" : 1714,
            "type" : "VEC3"
        },
        {
            "bufferView" : 2,
            "componentType" : 5126,
            "count" : 1714,
            "type" : "VEC2"
        },
        {
            "bufferView" : 3,
            "componentType" : 5123,
            "count" : 7530,
            "type" : "SCALAR"
        },
        {
            "bufferView" : 4,
            "componentType" : 5126,
            "count" : 214,
            "max" : [
                0.4000000059604645,
                0.0027466043829917908,
                0.4000000059604645
            ],
            "min" : [
                -0.4000000059604645,
                -0.05688635632395744,
                -0.4000000059604645
            ],
            "type" : "VEC3"
        },
        {
            "bufferView" : 5,
            "componentType" : 5126,
            "count" : 214,
            "type" : "VEC3"
        },
        {
            "bufferView" : 6,
            "componentType" : 5126,
            "count" : 214,
            "type" : "VEC2"
        },
        {
            "bufferView" : 7,
            "componentType" : 5123,
            "count" : 963,
            "type" : "SCALAR"
        }
    ],
    "bufferViews" : [
        {
            "buffer" : 0,
            "byteLength" : 20568,
            "byteOffset" : 0
        },
        {
            "buffer" : 0,
            "byteLength" : 20568,
            "byteOffset" : 20568
        },
        {
            "buffer" : 0,
            "byteLength" : 13712,
            "byteOffset" : 41136
        },
        {
            "buffer" : 0,
            "byteLength" : 15060,
            "byteOffset" : 54848
        },
        {
            "buffer" : 0,
            "byteLength" : 2568,
            "byteOffset" : 69908
        },
        {
            "buffer" : 0,
            "byteLength" : 2568,
            "byteOffset" : 72476
        },
        {
            "buffer" : 0,
            "byteLength" : 1712,
            "byteOffset" : 75044
        },
        {
            "buffer" : 0,
            "byteLength" : 1926,
            "byteOffset" : 76756
        }
    ],
    "buffers" : [
        {
            "byteLength" : 78684,
            "uri" : "data:application/octet-stream;base64,"
        }
    ]
}
